<svg width="42" height="33" viewBox="0 0 42 33" fill="none" xmlns="http://www.w3.org/2000/svg">
<path d="M20.6152 14.84H17.5801V9.75704H21.1807C23.1382 9.75704 24.2492 10.6304 24.2492 12.2098C24.2492 13.8963 22.9559 14.84 20.6118 14.84H20.6152ZM21.1573 16.8577H17.5818V22.4593H21.3145C23.7556 22.4593 25.0489 21.4806 25.0489 19.6401C25.0489 17.7997 23.7188 16.8577 21.1573 16.8577ZM41.0774 15.0909V17.1288C39.1901 17.3095 38.0373 18.7082 37.353 20.9234C36.6721 23.1303 36.5784 25.8374 36.6503 27.9271C36.7256 30.1021 35.0307 32.1099 32.7402 32.1099H9.26309C6.97092 32.1099 5.27605 30.1021 5.35302 27.9271C5.42496 25.8374 5.33127 23.1303 4.65031 20.9234C3.96433 18.7082 2.80988 17.3095 0.922607 17.1288V15.0909C2.80988 14.9102 3.966 13.5115 4.64863 11.2963C5.33127 9.08947 5.42496 6.38237 5.35134 4.29265C5.27605 2.1176 6.97092 0.109863 9.26309 0.109863H32.7402C35.0324 0.109863 36.7256 2.1176 36.6503 4.29265C36.5784 6.38237 36.6721 9.08947 37.353 11.2963C38.0373 13.5115 39.1901 14.9102 41.0774 15.0909ZM27.8146 19.8041C27.8146 17.5387 26.2201 15.9007 23.8526 15.6414V15.546C25.5927 15.2633 26.958 13.647 26.958 11.8434C26.958 9.27184 24.9285 7.59705 21.8349 7.59705H14.8747V24.616H21.87C25.581 24.616 27.8146 22.799 27.8146 19.8041Z" fill="#7952B3"/>
</svg>
