<svg width="20" height="21" viewBox="0 0 20 21" fill="none" xmlns="http://www.w3.org/2000/svg">
<path d="M15.12 10.999V9.2207L13.7917 10.1099L15.12 10.999ZM16.1833 11.994C16.1832 12.0172 16.1815 12.0403 16.1783 12.0632L16.1742 12.0865L16.165 12.1307L16.1567 12.1565C16.1525 12.1699 16.1483 12.1824 16.1425 12.1957L16.1308 12.2207C16.1254 12.2328 16.1195 12.2448 16.1133 12.2565L16.0975 12.2815C16.0785 12.3117 16.0561 12.3397 16.0308 12.3649L16.0092 12.3857C15.9995 12.3944 15.9895 12.4028 15.9792 12.4107L15.955 12.429L15.9467 12.4357L10.295 16.204C10.2077 16.2624 10.105 16.2935 10 16.2935C9.89498 16.2935 9.79231 16.2624 9.705 16.204L4.05333 12.4349L4.045 12.4282C4.02596 12.415 4.00786 12.4005 3.99083 12.3849L3.96917 12.364L3.9425 12.3357L3.925 12.3124C3.90309 12.2839 3.88437 12.2532 3.86917 12.2207L3.8575 12.1949C3.85227 12.182 3.84755 12.1689 3.84333 12.1557L3.835 12.1307C3.83167 12.1157 3.82833 12.1007 3.82667 12.0857L3.82167 12.0624C3.81847 12.0394 3.8168 12.0163 3.81667 11.9932V8.2257C3.81667 8.20236 3.81833 8.17986 3.82167 8.15653L3.82583 8.13403L3.835 8.08903L3.84333 8.06403C3.86309 7.99719 3.89722 7.93547 3.94333 7.8832L3.96917 7.85486L3.99083 7.83403C4.0079 7.81839 4.02599 7.80391 4.045 7.7907L4.05333 7.78403L9.705 4.01653C9.79235 3.95827 9.895 3.92718 10 3.92718C10.105 3.92718 10.2076 3.95827 10.295 4.01653L15.9467 7.78403L15.955 7.7907L15.98 7.80903L16.0092 7.83403C16.0175 7.8407 16.0233 7.84736 16.0308 7.85486C16.0563 7.87992 16.0786 7.9079 16.0975 7.9382L16.1133 7.9632C16.1196 7.97492 16.1255 7.98687 16.1308 7.99903L16.1425 8.02403C16.1483 8.03736 16.1525 8.0507 16.1567 8.0632L16.165 8.08903C16.1683 8.10403 16.1717 8.11903 16.1733 8.13403L16.1783 8.15653C16.1815 8.17945 16.1832 8.20255 16.1833 8.2257V11.994ZM10 0.109863C4.4775 0.109863 0 4.58653 0 10.1099C0 15.6324 4.4775 20.1099 10 20.1099C15.5233 20.1099 20 15.6332 20 10.1099C20 4.58736 15.5233 0.109863 10 0.109863ZM10 8.8532L8.12083 10.1099L10 11.3682L11.8792 10.1099L10 8.8532ZM10.5317 12.2899V14.769L14.695 11.994L12.835 10.7499L10.5317 12.2899ZM5.305 11.9932L9.46833 14.7682V12.2899L7.165 10.749L5.305 11.9932ZM14.695 8.22653L10.5317 5.45153V7.92986L12.835 9.47153L14.695 8.22653ZM9.46833 7.92986V5.45153L5.305 8.22653L7.165 9.4707L9.46833 7.92986ZM4.88 9.2207V10.999L6.20833 10.1099L4.88 9.2207Z" fill="#490D71"/>
</svg>
