<svg width="20" height="17" viewBox="0 0 20 17" fill="none" xmlns="http://www.w3.org/2000/svg">
<path d="M18 0.109863H2C0.9 0.109863 0.00999999 1.00986 0.00999999 2.10986L0 14.1099C0 15.2099 0.9 16.1099 2 16.1099H18C19.1 16.1099 20 15.2099 20 14.1099V2.10986C20 1.00986 19.1 0.109863 18 0.109863ZM17 14.1099H3C2.45 14.1099 2 13.6599 2 13.1099V4.10986L8.94 8.44986C9.59 8.85986 10.41 8.85986 11.06 8.44986L18 4.10986V13.1099C18 13.6599 17.55 14.1099 17 14.1099ZM10 7.10986L2 2.10986H18L10 7.10986Z" fill="#D9D9D9"/>
</svg>
