<svg width="20" height="21" viewBox="0 0 20 21" fill="none" xmlns="http://www.w3.org/2000/svg">
<path d="M7.58417 19.8882V13.2137H5.5225V10.1467H7.58417V8.82515C7.58417 5.40846 9.12417 3.82515 12.4658 3.82515C12.8 3.82515 13.2617 3.86028 13.6892 3.9113C14.0094 3.94437 14.327 3.99886 14.64 4.0744V6.85543C14.4591 6.83849 14.2775 6.82845 14.0958 6.82532C13.8923 6.82002 13.6886 6.81751 13.485 6.81779C12.8958 6.81779 12.4358 6.89809 12.0892 7.07624C11.8561 7.1936 11.6602 7.37373 11.5233 7.59648C11.3083 7.94777 11.2117 8.4287 11.2117 9.06185V10.1467H14.4775L14.1558 11.9056L13.9167 13.2137H11.2117V20.1099C16.1633 19.5093 20 15.278 20 10.1467C20 4.60384 15.5225 0.109863 10 0.109863C4.4775 0.109863 0 4.60384 0 10.1467C0 14.8539 3.22833 18.8034 7.58417 19.8882Z" fill="#490D71"/>
</svg>
