<svg width="24" height="33" viewBox="0 0 24 33" fill="none" xmlns="http://www.w3.org/2000/svg">
<path d="M17.1367 12.0845H11.0194V0.109863H17.1367C20.438 0.109863 23.1234 2.7952 23.1234 6.09653C23.1234 9.39786 20.438 12.0845 17.1367 12.0845ZM12.9807 10.1232H17.1367C19.3567 10.1232 21.162 8.31653 21.162 6.09786C21.162 3.8792 19.3554 2.07253 17.1367 2.07253H12.9807V10.1232ZM12.9807 12.0845H6.86471C3.56338 12.0845 0.878042 9.3992 0.878042 6.09786C0.878042 2.79653 3.56338 0.109863 6.86471 0.109863H12.982V12.0845H12.9807ZM6.86471 2.0712C4.64471 2.0712 2.83938 3.87786 2.83938 6.09653C2.83938 8.3152 4.64471 10.1232 6.86471 10.1232H11.0207V2.0712H6.86471ZM12.9807 22.0965H6.86471C3.56338 22.0965 0.878042 19.4112 0.878042 16.1099C0.878042 12.8085 3.56338 10.1232 6.86471 10.1232H12.982V22.0965H12.9807ZM6.86471 12.0845C4.64471 12.0845 2.83938 13.8912 2.83938 16.1099C2.83938 18.3285 4.64604 20.1352 6.86471 20.1352H11.0207V12.0845H6.86471ZM6.89671 32.1099C3.57804 32.1099 0.876709 29.4245 0.876709 26.1232C0.876709 22.8219 3.56204 20.1365 6.86338 20.1365H12.9807V26.0579C12.9807 29.3952 10.2514 32.1099 6.89671 32.1099ZM6.86471 22.0965C5.79756 22.0979 4.77452 22.5225 4.01993 23.2771C3.26534 24.0317 2.84079 25.0547 2.83938 26.1219C2.83938 28.3419 4.65938 30.1472 6.89804 30.1472C9.17138 30.1472 11.022 28.3125 11.022 26.0565V22.0965H6.86471ZM17.1367 22.0965H17.006C13.7047 22.0965 11.0194 19.4112 11.0194 16.1099C11.0194 12.8085 13.7047 10.1232 17.006 10.1232H17.1367C20.438 10.1232 23.1234 12.8085 23.1234 16.1099C23.1234 19.4112 20.438 22.0965 17.1367 22.0965ZM17.0074 12.0845C14.7874 12.0845 12.982 13.8912 12.982 16.1099C12.982 18.3285 14.7887 20.1352 17.0074 20.1352H17.138C19.358 20.1352 21.1634 18.3285 21.1634 16.1099C21.1634 13.8912 19.3554 12.0845 17.1367 12.0845H17.0074Z" fill="#F24E1E"/>
</svg>
