<svg width="21" height="21" viewBox="0 0 21 21" fill="none" xmlns="http://www.w3.org/2000/svg">
<path d="M10.8752 20.1098C5.36274 20.1098 0.875244 15.6223 0.875244 10.1098C0.875244 4.5973 5.36274 0.109802 10.8752 0.109802C16.3877 0.109802 20.8752 4.5973 20.8752 10.1098C20.8752 15.6223 16.3877 20.1098 10.8752 20.1098ZM19.3086 11.4781C19.0169 11.3865 16.6669 10.684 13.9886 11.1131C15.1052 14.1831 15.5611 16.6831 15.6486 17.2031C17.5652 15.9073 18.9286 13.8531 19.3111 11.4781H19.3086ZM14.2127 17.9848C14.0852 17.2348 13.5877 14.6248 12.3877 11.5098L12.3327 11.5265C7.50774 13.2056 5.78274 16.5473 5.63274 16.8598C7.07441 17.9915 8.89941 18.6648 10.8744 18.6648C12.0577 18.6648 13.1827 18.4231 14.2077 17.9865L14.2127 17.9848ZM4.52941 15.8348C4.72274 15.5015 7.06691 11.6223 11.4727 10.1973C11.5852 10.1598 11.6977 10.1273 11.8102 10.0973C11.5936 9.6098 11.3602 9.1248 11.1169 8.6473C6.85024 9.9223 2.71358 9.86814 2.33858 9.8598L2.33524 10.1198C2.33524 12.314 3.16691 14.3173 4.53024 15.8323L4.52941 15.8348ZM2.51274 8.3723C2.89608 8.37897 6.41524 8.39397 10.4102 7.3323C8.99524 4.8173 7.46858 2.70064 7.24358 2.3923C4.85358 3.5173 3.06858 5.7173 2.51358 8.3673L2.51274 8.3723ZM8.87524 1.8198C9.11024 2.13647 10.6627 4.24814 12.0602 6.8198C15.0977 5.6823 16.3852 3.95314 16.5377 3.7348C15.0294 2.39314 13.0461 1.5798 10.8752 1.5798C10.1877 1.5798 9.51691 1.66314 8.87524 1.8173V1.8198ZM17.4877 4.7223C17.3061 4.96397 15.8752 6.7998 12.7177 8.08897C12.9177 8.4973 13.1094 8.9098 13.2844 9.3273C13.3511 9.4773 13.4094 9.6273 13.4677 9.76897C16.3094 9.41063 19.1344 9.98563 19.4177 10.044C19.4011 8.0273 18.6844 6.1773 17.4927 4.7273L17.4877 4.7223Z" fill="#490D71"/>
</svg>
