<svg width="21" height="21" viewBox="0 0 21 21" fill="none" xmlns="http://www.w3.org/2000/svg">
<path d="M10.8752 0.109802C5.35024 0.109802 0.875244 4.70098 0.875244 10.3637C0.875244 14.8951 3.74024 18.7377 7.71274 20.0921C8.21274 20.1886 8.39608 19.8716 8.39608 19.599C8.39608 19.3555 8.38774 18.7104 8.38358 17.8559C5.60191 18.4745 5.01524 16.4801 5.01524 16.4801C4.56024 15.2967 3.90274 14.9805 3.90274 14.9805C2.99691 14.3448 3.97274 14.3576 3.97274 14.3576C4.97691 14.4294 5.50441 15.4137 5.50441 15.4137C6.39608 16.9817 7.84524 16.5289 8.41691 16.2665C8.50691 15.6034 8.76441 15.1514 9.05024 14.8951C6.82941 14.6387 4.49524 13.7569 4.49524 9.82793C4.49524 8.70855 4.88274 7.79424 5.52441 7.07647C5.41191 6.81756 5.07441 5.77508 5.61191 4.36261C5.61191 4.36261 6.44941 4.08746 8.36191 5.41363C9.16191 5.18548 10.0119 5.07269 10.8619 5.06756C11.7119 5.07269 12.5619 5.18548 13.3619 5.41363C15.2619 4.08746 16.0994 4.36261 16.0994 4.36261C16.6369 5.77508 16.2994 6.81756 16.1994 7.07647C16.8369 7.79424 17.2244 8.70855 17.2244 9.82793C17.2244 13.7671 14.8869 14.6344 12.6619 14.8865C13.0119 15.1941 13.3369 15.823 13.3369 16.7835C13.3369 18.1558 13.3244 19.2581 13.3244 19.5914C13.3244 19.8605 13.4994 20.181 14.0119 20.0784C18.0127 18.7334 20.8752 14.8882 20.8752 10.3637C20.8752 4.70098 16.3977 0.109802 10.8752 0.109802Z" fill="#490D71"/>
</svg>
