<svg width="17" height="16" viewBox="0 0 17 16" fill="none" xmlns="http://www.w3.org/2000/svg">
<path d="M2.09836 2.69675C1.75014 3.04497 1.47391 3.45837 1.28545 3.91334C1.097 4.36831 1 4.85595 1 5.34841C1 5.84087 1.097 6.3285 1.28545 6.78348C1.47391 7.23845 1.75014 7.65185 2.09836 8.00007L8.50001 14.4017L14.9016 8.00007C15.6049 7.2968 16 6.34297 16 5.34841C16 4.35384 15.6049 3.40001 14.9016 2.69675C14.1984 1.99349 13.2446 1.5984 12.25 1.5984C11.2554 1.5984 10.3016 1.99349 9.59833 2.69675L8.50001 3.79508L7.40168 2.69675C7.05346 2.34853 6.64006 2.0723 6.18509 1.88384C5.73011 1.69539 5.24248 1.59839 4.75002 1.59839C4.25756 1.59839 3.76992 1.69539 3.31495 1.88384C2.85998 2.0723 2.44658 2.34853 2.09836 2.69675Z" stroke="#490D71" stroke-width="2" stroke-linecap="round" stroke-linejoin="round"/>
</svg>
