<svg width="20" height="21" viewBox="0 0 20 21" fill="none" xmlns="http://www.w3.org/2000/svg">
<path d="M5.85843 0.179877C4.79442 0.230044 4.06784 0.399876 3.43258 0.649376C2.77525 0.905625 2.218 1.24937 1.66358 1.80579C1.10924 2.3622 0.767738 2.91979 0.513404 3.57828C0.267236 4.21478 0.100402 4.94203 0.0534016 6.00661C0.00640135 7.07119 -0.00401536 7.41344 0.00123466 10.1291C0.00640136 12.8446 0.0184014 13.185 0.069985 14.2518C0.120819 15.3156 0.289986 16.042 0.539571 16.6774C0.796238 17.3348 1.13957 17.8918 1.69624 18.4464C2.25283 19.001 2.81 19.3417 3.47 19.5964C4.106 19.8422 4.83342 20.0098 5.89785 20.0564C6.96227 20.1031 7.30485 20.1139 10.0197 20.1087C12.7345 20.1035 13.0764 20.0914 14.1429 20.0408C15.2096 19.9902 15.9321 19.8198 16.5677 19.5714C17.2252 19.3142 17.7826 18.9714 18.3367 18.4147C18.8909 17.8578 19.2322 17.2998 19.4863 16.641C19.7327 16.005 19.9002 15.2777 19.9463 14.214C19.993 13.1466 20.004 12.8058 19.9988 10.0907C19.9936 7.37544 19.9813 7.03502 19.9307 5.96861C19.8802 4.9022 19.7107 4.17803 19.4613 3.5422C19.2043 2.88479 18.8613 2.3282 18.305 1.77321C17.7486 1.21821 17.1901 0.877208 16.5316 0.623626C15.8951 0.377377 15.1681 0.209627 14.1037 0.163627C13.0393 0.117627 12.6967 0.105711 9.98087 0.111044C7.26502 0.116211 6.92502 0.127877 5.85843 0.179877ZM5.97526 18.2574C5.00026 18.215 4.47084 18.053 4.118 17.9174C3.65084 17.7374 3.318 17.5198 2.96642 17.1716C2.61475 16.8234 2.39883 16.4894 2.21641 16.0232C2.07941 15.6704 1.91441 15.1416 1.86883 14.1666C1.81924 13.1128 1.80883 12.7964 1.80299 10.1266C1.79716 7.45686 1.80741 7.14077 1.85358 6.08661C1.89524 5.11245 2.05824 4.58245 2.19358 4.22978C2.37358 3.76203 2.59041 3.42978 2.93942 3.07845C3.28842 2.72704 3.62142 2.51062 4.088 2.3282C4.44051 2.19062 4.96926 2.02704 5.94385 1.98062C6.99844 1.93062 7.31444 1.92062 9.98387 1.91479C12.6533 1.90896 12.9701 1.91896 14.0251 1.96546C14.9993 2.00779 15.5296 2.1692 15.8818 2.30545C16.3491 2.48545 16.6818 2.70162 17.0331 3.05129C17.3846 3.40078 17.6012 3.73262 17.7836 4.2002C17.9213 4.55161 18.085 5.0802 18.131 6.05544C18.1812 7.11002 18.1926 7.42627 18.1973 10.0954C18.2022 12.7646 18.1927 13.0816 18.1465 14.1354C18.104 15.1104 17.9423 15.64 17.8065 15.9932C17.6265 16.4602 17.4096 16.7932 17.0603 17.1444C16.7111 17.4957 16.3786 17.712 15.9117 17.8944C15.5597 18.0318 15.0303 18.1958 14.0566 18.2422C13.0019 18.2918 12.6859 18.3022 10.0155 18.3081C7.34502 18.3139 7.02985 18.3031 5.97526 18.2574ZM14.1276 4.7652C14.1279 5.00255 14.1987 5.23446 14.3309 5.43159C14.4631 5.62872 14.6508 5.78221 14.8703 5.87266C15.0898 5.9631 15.3311 5.98644 15.5638 5.9397C15.7965 5.89297 16.0102 5.77828 16.1777 5.61013C16.3452 5.44198 16.4591 5.22792 16.505 4.99503C16.5508 4.76215 16.5266 4.52089 16.4353 4.30178C16.344 4.08267 16.1898 3.89555 15.9922 3.76408C15.7946 3.63261 15.5624 3.56271 15.3251 3.5632C15.0069 3.56386 14.702 3.69086 14.4774 3.91626C14.2529 4.14167 14.127 4.44702 14.1276 4.7652ZM4.86542 10.1198C4.87101 12.9558 7.17427 15.2496 10.0096 15.2443C12.8451 15.2388 15.1405 12.9358 15.1351 10.0998C15.1297 7.26386 12.826 4.96945 9.99012 4.97503C7.15427 4.98061 4.86009 7.28419 4.86542 10.1198ZM6.66668 10.1163C6.66538 9.457 6.85961 8.81216 7.22479 8.26328C7.58998 7.71439 8.10973 7.28613 8.71831 7.03263C9.3269 6.77914 9.99699 6.7118 10.6438 6.83913C11.2907 6.96646 11.8853 7.28275 12.3524 7.74799C12.8195 8.21324 13.1381 8.80654 13.268 9.45288C13.3979 10.0992 13.3333 10.7696 13.0822 11.3792C12.8311 11.9887 12.4049 12.5102 11.8575 12.8775C11.31 13.2449 10.666 13.4417 10.0067 13.443C9.56894 13.4439 9.13528 13.3586 8.7305 13.1919C8.32572 13.0252 7.95774 12.7804 7.64758 12.4715C7.33743 12.1626 7.09116 11.7956 6.92286 11.3914C6.75455 10.9873 6.6675 10.554 6.66668 10.1163Z" fill="#490D71"/>
</svg>
