<svg width="32" height="33" viewBox="0 0 32 33" fill="none" xmlns="http://www.w3.org/2000/svg">
<path d="M0 0.109863H32V32.1099H0V0.109863ZM29.3787 24.4779C29.1453 23.0179 28.1947 21.7912 25.3747 20.6472C24.3933 20.1872 23.3027 19.8672 22.9787 19.1272C22.8573 18.6872 22.8387 18.4472 22.9173 18.1872C23.1173 17.3259 24.1373 17.0672 24.9373 17.3072C25.4573 17.4672 25.9373 17.8672 26.2387 18.5072C27.6173 17.6059 27.6173 17.6059 28.5787 17.0072C28.2187 16.4472 28.04 16.2059 27.7973 15.9672C26.9573 15.0272 25.8387 14.5472 24.0187 14.5885L23.0787 14.7072C22.1773 14.9272 21.3187 15.4072 20.7987 16.0472C19.2787 17.7685 19.7173 20.7685 21.5573 22.0085C23.3773 23.3685 26.0387 23.6672 26.3787 24.9485C26.6987 26.5085 25.2187 27.0085 23.7573 26.8285C22.676 26.5885 22.0773 26.0472 21.4173 25.0472L18.9773 26.4485C19.2573 27.0885 19.5773 27.3672 20.0573 27.9272C22.3773 30.2685 28.1773 30.1485 29.2187 26.5885C29.2573 26.4685 29.5387 25.6485 29.3173 24.3885L29.3787 24.4779ZM17.4013 14.8179H14.404C14.404 17.4019 14.392 19.9699 14.392 22.5579C14.392 24.2005 14.476 25.7085 14.208 26.1725C13.768 27.0912 12.6347 26.9739 12.12 26.8125C11.592 26.5512 11.324 26.1912 11.0133 25.6725C10.9293 25.5325 10.8667 25.4112 10.844 25.4112L8.41067 26.9112C8.81733 27.7512 9.41067 28.4739 10.176 28.9339C11.316 29.6139 12.848 29.8339 14.452 29.4739C15.496 29.1725 16.396 28.5525 16.8667 27.5925C17.5467 26.3525 17.4027 24.8325 17.396 23.1312C17.412 20.3925 17.396 17.6525 17.396 14.8925L17.4013 14.8179Z" fill="#F7DF1E"/>
</svg>
