<svg width="21" height="21" viewBox="0 0 21 21" fill="none" xmlns="http://www.w3.org/2000/svg">
<path d="M17.9144 17.1531H14.9527V12.5123C14.9527 11.4056 14.9302 9.98147 13.4094 9.98147C11.8652 9.98147 11.6294 11.1856 11.6294 12.4306V17.1531H8.66774V7.6098H11.5127V8.91063H11.5511C11.9486 8.16063 12.9152 7.36897 14.3594 7.36897C17.3602 7.36897 17.9152 9.34397 17.9152 11.9148L17.9144 17.1531ZM5.32274 6.30397C4.36941 6.30397 3.60358 5.5323 3.60358 4.58314C3.60358 3.6348 4.37024 2.86397 5.32274 2.86397C6.27274 2.86397 7.04274 3.6348 7.04274 4.58314C7.04274 5.5323 6.27191 6.30397 5.32274 6.30397ZM6.80774 17.1531H3.83774V7.6098H6.80774V17.1531ZM19.3961 0.109802H2.35108C1.53524 0.109802 0.875244 0.754802 0.875244 1.55064V18.669C0.875244 19.4656 1.53524 20.1098 2.35108 20.1098H19.3936C20.2086 20.1098 20.8752 19.4656 20.8752 18.669V1.55064C20.8752 0.754802 20.2086 0.109802 19.3936 0.109802H19.3961Z" fill="#490D71"/>
</svg>
