<svg width="24" height="25" viewBox="0 0 24 25" fill="none" xmlns="http://www.w3.org/2000/svg">
<path d="M12.3333 10.5432L13.5667 11.7765L20.8 4.5432L19.5667 3.30986L12.3333 10.5432ZM2.66667 21.4432H3.9L11.6667 13.6765L10.4333 12.4432L2.66667 20.2099V21.4432ZM14.5 14.6099L9.5 9.60986L15.0667 4.0432L14.1 3.07653L7.73333 9.4432C7.46667 9.70986 7.15556 9.8432 6.8 9.8432C6.44444 9.8432 6.13333 9.70986 5.86667 9.4432C5.6 9.17653 5.46667 8.85986 5.46667 8.4932C5.46667 8.12653 5.6 7.80986 5.86667 7.5432L12.2 1.20986C12.7333 0.67653 13.3611 0.409863 14.0833 0.409863C14.8056 0.409863 15.4333 0.67653 15.9667 1.20986L16.9333 2.17653L18.6 0.509863C18.8667 0.243197 19.1833 0.109863 19.55 0.109863C19.9167 0.109863 20.2333 0.243197 20.5 0.509863L23.6 3.60986C23.8667 3.87653 24 4.1932 24 4.55986C24 4.92653 23.8667 5.2432 23.6 5.50986L14.5 14.6099ZM1.33333 24.1099C0.955556 24.1099 0.638889 23.9821 0.383333 23.7265C0.127778 23.471 0 23.1543 0 22.7765V20.2099C0 19.8543 0.0666667 19.5154 0.2 19.1932C0.333333 18.871 0.522222 18.5876 0.766667 18.3432L9.5 9.60986L14.5 14.6099L5.76667 23.3432C5.52222 23.5876 5.23889 23.7765 4.91667 23.9099C4.59444 24.0432 4.25556 24.1099 3.9 24.1099H1.33333Z" fill="#490D71"/>
</svg>
