<svg width="24" height="25" viewBox="0 0 24 25" fill="none" xmlns="http://www.w3.org/2000/svg">
<path d="M11.988 0.109802C5.364 0.109802 0 5.4858 0 12.1098C0 18.7338 5.364 24.1098 11.988 24.1098C18.624 24.1098 24 18.7338 24 12.1098C24 5.4858 18.624 0.109802 11.988 0.109802ZM15.864 18.5778L12 16.2498L8.136 18.5778C7.68 18.8538 7.116 18.4458 7.236 17.9298L8.256 13.5378L4.86 10.5978C4.464 10.2498 4.68 9.5898 5.208 9.5418L9.696 9.1578L11.448 5.0178C11.652 4.5258 12.348 4.5258 12.552 5.0178L14.304 9.1458L18.792 9.5298C19.32 9.5778 19.536 10.2378 19.128 10.5858L15.732 13.5258L16.752 17.9298C16.872 18.4458 16.32 18.8538 15.864 18.5778Z" fill="#490D71"/>
</svg>
