<svg width="36" height="33" viewBox="0 0 36 33" fill="none" xmlns="http://www.w3.org/2000/svg">
<path d="M21.3385 16.1136C21.3385 17.0011 20.9861 17.8524 20.3586 18.4801C19.7312 19.1078 18.8801 19.4607 17.9926 19.4611C17.1048 19.4611 16.2533 19.1084 15.6256 18.4806C14.9978 17.8528 14.6451 17.0014 14.6451 16.1136C14.6451 15.2261 14.9976 14.3749 15.625 13.7471C16.2525 13.1194 17.1035 12.7665 17.9911 12.7661C18.8789 12.7661 19.7303 13.1188 20.3581 13.7466C20.9859 14.3744 21.3385 15.2258 21.3385 16.1136ZM25.3028 0.109863C23.2877 0.109863 20.6514 1.54706 17.9851 4.0352C15.3203 1.56053 12.6825 0.139805 10.6689 0.139805C10.0551 0.139805 9.49668 0.279033 9.01312 0.555992C6.95464 1.74317 6.49354 5.44245 7.55647 10.0849C2.99937 11.4921 0.0351562 13.7422 0.0351562 16.1136C0.0351562 18.494 3.01434 20.7501 7.58491 22.1468C6.53097 26.8072 7.00105 30.5125 9.06402 31.6982C9.54309 31.9781 10.097 32.1099 10.7138 32.1099C12.7274 32.1099 15.3652 30.6727 18.0315 28.1815C20.6963 30.6577 23.3342 32.0784 25.3477 32.0784C25.9615 32.0784 26.5199 31.9437 27.0035 31.6667C29.0605 30.481 29.5231 26.7818 28.4601 22.1378C33.0008 20.7426 35.965 18.488 35.965 16.1136C35.965 13.7333 32.9858 11.4772 28.4152 10.0774C29.4692 5.42149 28.9991 1.71323 26.9361 0.52605C26.46 0.250588 25.9076 0.11136 25.3028 0.109863ZM25.2953 1.74168V1.75066C25.6322 1.75066 25.9031 1.81653 26.1307 1.94079C27.1277 2.51267 27.5604 4.68792 27.2236 7.48596C27.1427 8.17461 27.011 8.90069 26.8493 9.64175C25.4121 9.28844 23.8462 9.01747 22.1979 8.84231C21.2098 7.48745 20.1843 6.25686 19.1513 5.17896C21.5347 2.96329 23.7728 1.74766 25.2968 1.74317L25.2953 1.74168ZM10.6689 1.77162C12.1839 1.77162 14.4325 2.98125 16.8219 5.18495C15.7949 6.26285 14.7709 7.48596 13.7978 8.84081C12.1405 9.01597 10.5731 9.28694 9.13738 9.64624C8.96971 8.91267 8.84545 8.20306 8.75712 7.52039C8.41279 4.72385 8.83796 2.5501 9.82603 1.97073C10.1105 1.83599 10.4249 1.7791 10.6689 1.77162ZM17.9776 6.3377C18.6588 7.03833 19.34 7.8228 20.0136 8.67913C19.3549 8.64919 18.6812 8.62823 18.0001 8.62823C17.3114 8.62823 16.6302 8.6432 15.964 8.67913C16.6228 7.8228 17.3039 7.03983 17.9776 6.3377ZM18.0001 10.269C19.1079 10.269 20.2113 10.3199 21.2966 10.4082C21.9044 11.2795 22.4973 12.2092 23.0677 13.1928C23.6246 14.1509 24.1306 15.124 24.5917 16.1061C24.1306 17.0867 23.6246 18.0673 23.0752 19.0254C22.5063 20.0135 21.9179 20.9537 21.3086 21.825C20.2187 21.9193 19.1139 21.9717 18.0001 21.9717C16.8922 21.9717 15.7889 21.9193 14.7035 21.8324C14.0957 20.9611 13.5029 20.03 12.9325 19.0479C12.3756 18.0897 11.8695 17.1166 11.4084 16.1346C11.8621 15.151 12.3756 14.1689 12.925 13.2093C13.4939 12.2212 14.0822 11.284 14.6915 10.4127C15.7814 10.3169 16.8862 10.266 18.0001 10.266V10.269ZM12.5582 10.6493C12.1989 11.2137 11.8396 11.7915 11.5043 12.3859C11.1674 12.9697 10.853 13.5566 10.5536 14.1435C10.1569 13.1614 9.82005 12.1823 9.54159 11.2286C10.4997 11.0041 11.5102 10.8035 12.5582 10.6493ZM23.427 10.6493C24.4674 10.8035 25.4705 10.9936 26.4301 11.2286C26.1606 12.1748 25.8238 13.1479 25.442 14.1225C25.1426 13.5386 24.8282 12.9503 24.4839 12.3649C24.1471 11.7781 23.7878 11.2062 23.4285 10.6493H23.427ZM28.0125 11.6598C28.7371 11.8844 29.4258 12.1344 30.071 12.4053C32.6639 13.5132 34.3407 14.9624 34.3407 16.1121C34.3332 17.2619 32.6564 18.717 30.0635 19.8174C29.4347 20.0868 28.7461 20.3294 28.035 20.5554C27.6158 19.1212 27.0679 17.6271 26.3882 16.0941C27.0619 14.5716 27.6008 13.085 28.0125 11.6568V11.6598ZM7.95918 11.6658C8.37537 13.103 8.92479 14.5956 9.60596 16.1271C8.93228 17.6496 8.39034 19.1362 7.98014 20.5644C7.25555 20.3399 6.5669 20.0883 5.92914 19.8159C3.33621 18.7125 1.65948 17.2619 1.65948 16.1121C1.65948 14.9624 3.33621 13.5042 5.92914 12.4053C6.55792 12.1359 7.24657 11.8933 7.95918 11.6658ZM25.442 18.0733C25.8388 19.0569 26.1756 20.0374 26.4541 20.9896C25.4959 21.2246 24.4839 21.4237 23.436 21.5734C23.7952 21.012 24.1546 20.4327 24.4914 19.8398C24.8282 19.256 25.1411 18.6601 25.442 18.0733ZM10.5536 18.1032C10.853 18.6901 11.1674 19.2754 11.5117 19.8623C11.8561 20.4461 12.2079 21.018 12.5672 21.5734C11.5267 21.4207 10.5237 21.2291 9.56404 20.9956C9.83352 20.0524 10.1719 19.0763 10.5521 18.1017L10.5536 18.1032ZM26.8628 22.575C27.0304 23.313 27.1622 24.0242 27.243 24.7053C27.5873 27.5019 27.1622 29.6756 26.1741 30.2565C25.954 30.3912 25.6681 30.4481 25.3312 30.4481C23.8162 30.4481 21.5676 29.24 19.1783 27.0348C20.2053 25.9569 21.2293 24.7353 22.2024 23.3819C23.8596 23.2053 25.4271 22.9343 26.8628 22.575ZM9.15235 22.59C10.5895 22.9403 12.1555 23.2112 13.8038 23.3864C14.7918 24.7413 15.8173 25.9719 16.8503 27.0483C14.4625 29.2684 12.2214 30.484 10.6973 30.484C10.368 30.4766 10.0895 30.4092 9.86945 30.2864C8.8724 29.7175 8.43974 27.5408 8.77658 24.7428C8.85743 24.0541 8.99067 23.3295 9.15235 22.59ZM15.979 23.5481C16.6377 23.578 17.3114 23.599 17.9926 23.599C18.6812 23.599 19.3624 23.584 20.0286 23.5481C19.3699 24.4044 18.6887 25.1874 18.015 25.891C17.3339 25.1874 16.6527 24.4044 15.979 23.5481Z" fill="#61DAFB"/>
</svg>
