<svg width="34" height="33" viewBox="0 0 34 33" fill="none" xmlns="http://www.w3.org/2000/svg">
<path d="M23.5149 22.4424C24.7381 22.3369 25.6843 21.2614 25.6239 19.9763C25.5578 18.6912 24.5047 17.6593 23.2211 17.6593H23.1353C22.4983 17.682 21.8963 17.9567 21.4618 18.4231C21.0273 18.8895 20.7958 19.5094 20.8182 20.1464C20.8604 20.8199 21.136 21.3682 21.5128 21.7675C20.0393 24.6329 17.8277 26.739 14.4759 28.5092C12.2221 29.6874 9.84179 30.1317 7.52475 29.8167C5.58731 29.5426 4.07167 28.6779 3.14373 27.2874C1.75462 25.1798 1.62809 22.9063 2.7852 20.6315C3.62879 18.9865 4.89276 17.7872 5.73635 17.1967C5.48168 16.4905 5.28421 15.7651 5.14584 15.0273C-1.09248 19.4955 -0.456976 25.603 1.43828 28.4895C2.84988 30.5956 5.73635 31.9426 8.89557 31.9426C9.73916 31.9426 10.6249 31.8807 11.4868 31.6698C16.9659 30.6167 21.1149 27.331 23.4952 22.486L23.5149 22.4424ZM31.0341 17.1756C27.7722 13.3401 22.9666 11.2339 17.4889 11.2339H16.7718C16.4161 10.455 15.595 9.96997 14.6657 9.96997H14.6024C13.2766 9.96997 12.2432 11.1088 12.2868 12.4346C12.329 13.6972 13.4031 14.7517 14.6882 14.7517H14.7922C15.248 14.7341 15.6891 14.5857 16.0629 14.3241C16.4366 14.0626 16.7271 13.699 16.8998 13.2768H17.6801C20.9265 13.2768 24 14.2245 26.8021 16.0775C28.949 17.4905 30.4885 19.3436 31.3532 21.5566C32.1096 23.3675 32.0689 25.1376 31.29 26.6139C30.0878 28.9295 28.0646 30.1527 25.3905 30.1527C23.7047 30.1527 22.0625 29.6255 21.2189 29.2473C20.7128 29.6663 19.8692 30.3622 19.259 30.784C21.1121 31.6248 22.9877 32.1099 24.7986 32.1099C28.9068 32.1099 31.9606 29.7942 33.1205 27.5601C34.3831 25.0322 34.2791 20.7777 31.0537 17.1334L31.0341 17.1756ZM9.25269 23.1988C9.29487 24.4628 10.3676 25.5158 11.6541 25.5158H11.7385C12.0551 25.5087 12.367 25.4383 12.656 25.3087C12.9449 25.1791 13.205 24.993 13.421 24.7614C13.6369 24.5297 13.8043 24.2572 13.9132 23.9599C14.0222 23.6625 14.0706 23.3464 14.0555 23.0301C14.0555 21.7647 12.9602 20.7144 11.6752 20.7144H11.5908C11.5065 20.7144 11.3799 20.7144 11.2731 20.7552C9.52545 17.8055 8.78731 14.6434 9.06288 11.2339C9.2316 8.66382 10.0752 6.42972 11.5894 4.57665C12.8548 2.99633 15.2351 2.21461 16.8576 2.17524C21.4073 2.08948 23.304 7.75837 23.4502 10.0121L25.5564 10.6448C25.0713 3.73306 20.7761 0.109863 16.6678 0.109863C12.8098 0.109863 9.25269 2.91197 7.81859 7.02023C5.86007 12.4965 7.14513 17.7647 9.54795 21.9784C9.33705 22.2526 9.21051 22.7362 9.25269 23.1988Z" fill="#764ABC"/>
</svg>
